<svg viewBox="0 0 320.66 62.58" xmlns="http://www.w3.org/2000/svg" data-name="Layer 2" id="Layer_2">
  <defs>
    <style>
      .cls-1 {
        fill: #7f2826;
      }

      .cls-2 {
        fill: #000d25;
      }
    </style>
  </defs>
  <g data-name="Layer 2" id="Layer_2-2">
    <g>
      <g>
        <g>
          <path d="M271.53,34.34c-.73,0-2.71,3.61-8.59,3.61-2.24,0-4.12-1.36-4.12-4.7,0-.11,0-.21,0-.32,7.03-.06,13.24-4.52,13.24-8.81s-3.29-5.13-5.65-5.13c-7.28,0-13.68,8.02-14.24,14.85-1.98,1.73-5.28,4.12-8.44,4.12-2.24,0-4.12-1.36-4.12-4.7,0-6.41,4.31-10.57,6.42-10.57,1.2,0,1.57.93,1.57,1.78,0,1-.53,1.12-.53,1.75s.84.8,1.27.8c1.62,0,4.22-1.47,4.22-3.78,0-3.2-3.33-4.25-5.36-4.25-7.31,0-13.73,8.08-14.24,14.93-.59.86-2.13,2.87-3.66,2.87-.68,0-1.32-.33-1.32-1.38,0-3.37,3.85-9.47,3.85-12.28,0-1.45-.64-4.14-4.15-4.14-2.43,0-4.54,1.3-6.12,2.73l.62-1.71c.15-.42-.16-.86-.6-.86h-4.73c-.41,0-.77.25-.91.64l-4.78,13.28s0,0,0,0c-.9,2.46-2.38,4.35-4.86,4.35-2.72,0-1.47-3.35-.59-5.8.81-2.24,3.22-8.93,4.18-11.6.15-.42-.16-.86-.6-.86h-4.73c-.41,0-.77.25-.91.64-.12.33-.26.73-.43,1.19-.98-1.04-2.47-1.99-4.66-1.99-5.9,0-13.72,6.33-13.72,15.77,0,.07,0,.14,0,.22-1.09,1.14-2.62,2.44-4.01,2.44-2.72,0-1.47-3.35-.59-5.8.81-2.24,3.22-8.93,4.18-11.6.15-.42-.16-.86-.6-.86h-4.73c-.41,0-.77.25-.91.64-.86,2.39-3.2,8.89-4.07,11.3-1.6,1.85-4.19,3.67-7.15,5.57l6-16.65c.15-.42-.16-.86-.6-.86h-4.73c-.41,0-.77.25-.91.64l-.43,1.19c-.98-1.04-2.47-1.99-4.66-1.99-5.35,0-12.29,5.21-13.52,13.24-.87.92-5.65,5.73-10.13,5.73-2.24,0-4.12-1.36-4.12-4.7,0-.11,0-.21,0-.32,7.03-.06,13.24-4.52,13.24-8.81s-3.29-5.13-5.65-5.13c-7.46,0-13.99,8.42-14.27,15.35-2.43,1.75-4.79,2.84-6.35,2.84-3.01,0-3.36-3.06-3.39-6.04,10.31-7.19,14.67-19.59,14.67-23.22,0-2.5-.88-5.04-4.13-5.04-6.92,0-16.16,14.51-17,29.88-3.27,2.64-6.59,4.43-8.66,4.43-3.45,0-3.24-4.3-3.24-7.67,0-.36.06-.91.18-1.6,9.09-5.04,14-13.84,14-19.99h0c0-2.5-.86-5.04-4.13-5.04-5.66,0-13.65,11.41-15.98,24.71-1.7.58-3.56,1-5.58,1.21,1.47-11.04,4.59-20.69,9.19-25.89.58-.65.06-1.68-.81-1.6-15.1,1.43-22.47,14.19-29.24,24.16-2.1-1.58-2.36-3.49-1.28-5.27.2-.33,0-.77-.38-.83-2.52-.38-5.07,1.48-5.07,3.8,0,1.88,1.44,3.84,4.55,5.43-3.75,5.14-7.56,8.93-12.66,8.93-1.85,0-2.35-1.04-2.3-1.9.02-.38-.33-.68-.7-.58-1.73.48-2.89,2.3-2.89,3.54,0,3.23,2.54,5.36,6.42,5.36,7.73,0,13.18-6.06,17.96-13.34,2.39.55,5.23.94,8.53,1.13-.74,3.48-1.21,6.91-1.34,10.08-.02.55.42,1,.96,1h7.17c.53,0,.96-.42.96-.95.05-3.45.25-6.87.6-10.2,1.93-.21,3.76-.57,5.49-1.06-.16,1.46-.24,2.93-.24,4.4,0,5.04,3.19,8.06,6.66,8.06,4.71,0,7.99-2.79,11.87-6.74.5,3.73,3.04,6.74,6.15,6.74,4.02,0,7.32-2.09,10.53-5.12,1.18,3.3,4.21,5.04,7.42,5.04,5.48,0,10.86-4.84,12.88-6.87.6,5.16,4.63,6.87,6.9,6.87,1.18,0,2.22-.24,3.13-.62-6.24,4.24-11.73,9.15-11.73,15.52,0,3.99,3.16,4.71,4.46,4.71,7.69,0,12.95-16.87,14.47-21.09h0l.07-.19c2.71-1.84,5.28-3.49,7.17-4.81-.13.66-.21,1.3-.21,1.88,0,2.1,1.63,4.6,4.59,4.6,4.19,0,6.99-2.66,8.55-4.8,1.28,3.56,4.49,4.8,6.42,4.8,2.91,0,4.96-1.46,6.25-2.86.63,1.53,2.08,2.86,4.23,2.86,2.69,0,4.8-1.35,6.37-3.01l-.78,2.15c-.15.42.16.86.6.86h4.73c.41,0,.77-.25.91-.64l4.47-12.41c1.35-3.75,3.7-5.94,5.36-5.94.72,0,.98.49.98,1.14,0,2.24-4.48,8.79-4.48,13.8,0,2.02,1.5,4.05,4.13,4.05,3.89,0,7.22-3.22,8.83-5.11,1.16,3.35,4.21,5.11,7.45,5.11,4.62,0,9.1-3.44,11.57-5.74,1.01,3.75,4.36,5.74,7.79,5.74,9.05,0,11.63-6.64,11.63-7.96,0-.4-.06-.67-.35-.67h0ZM72.16,27.76c5.67-9.19,10.64-19.26,17.86-21.3-4.28,4.58-8.18,13.37-10.45,22.34-2.95-.19-5.4-.55-7.41-1.04h0ZM108.18,6.51c.7,0,1.01.52,1.01,1.4,0,3.05-2.57,10.62-9.01,15.79,1.76-6.96,5.32-17.2,8-17.2h0ZM126.88,6.51c4.09,0-2.37,14.14-8.89,20.14-.06.06-.12.11-.18.16,1.32-6.53,5.91-20.3,9.06-20.3h0ZM140.28,22.67c1.2,0,1.44.9,1.44,1.65,0,2.6-3.18,5.65-7.51,5.86,1.06-4.64,4.33-7.51,6.07-7.51ZM154.46,32.98c0-3.89,3.25-10.29,7.04-10.29,3.38,0,2.44,4.83,2.08,5.82,0,0,0,0,0,0l-1.83,5.09c-.47,1.11-1.73,3.45-4.06,3.45-2.46,0-3.23-1.76-3.23-4.07h0ZM151.34,58.23c-.76,0-1.12-.67-1.12-1.28,0-3.13,3.36-6.75,7.63-10.21-2.4,7.07-4.96,11.5-6.51,11.5h0ZM194.62,37.06c-2.46,0-3.23-1.76-3.23-4.07,0-3.89,3.25-10.29,7.04-10.29,3.38,0,2.44,4.83,2.08,5.82-.42,1.17-.78,2.18-1.01,2.8-.19.52-.41,1.12-.63,1.77,0,0,0,0,0,0-.15.46-1.41,3.97-4.25,3.97h0ZM265.24,22.67c1.2,0,1.44.9,1.44,1.65,0,2.6-3.18,5.65-7.51,5.86,1.06-4.64,4.33-7.51,6.07-7.51Z" class="cls-2"></path>
          <circle r="3.22" cy="12.55" cx="183.72" class="cls-2"></circle>
        </g>
        <g>
          <g>
            <path d="M91.58,51.64v8.43c0,.07-.06.13-.13.13h-3.25c-.07,0-.13-.06-.13-.13v-5.4c0-.13-.18-.18-.24-.06l-2.74,5.51s-.07.07-.11.07h-2.05s-.09-.03-.11-.07l-2.91-5.63c-.06-.12-.24-.07-.24.06v5.51c0,.07-.06.13-.13.13h-2.67c-.07,0-.13-.06-.13-.13v-8.43c0-.07.06-.13.13-.13h5.36s.09.03.11.07l1.81,3.68c.05.09.18.09.23,0l1.84-3.68s.07-.07.11-.07h5.12c.07,0,.13.06.13.13h0Z" class="cls-1"></path>
            <path d="M94.95,60.02l3.75-8.43s.07-.08.12-.08h3.34c.05,0,.1.03.12.08l3.58,8.43c.04.08-.03.18-.12.18h-3.21c-.05,0-.1-.03-.12-.08l-.35-.83s-.07-.08-.12-.08h-3.39c-.05,0-.1.03-.12.08l-.36.83s-.07.08-.12.08h-2.89c-.09,0-.15-.09-.12-.18h0ZM99.5,57.29h1.55c.09,0,.15-.09.12-.18l-.85-2.03h-.05l-.88,2.03c-.04.08.03.18.12.18h0Z" class="cls-1"></path>
            <path d="M109.23,60.07v-8.43c0-.07.06-.13.13-.13h5.99c2.64,0,4.81,1.77,4.81,4.34s-2.21,4.34-4.85,4.34h-5.95c-.07,0-.13-.06-.13-.13h0ZM112.74,53.62v4.48c0,.07.06.13.13.13h1.7c1.07,0,1.86-.99,1.86-2.37s-.79-2.37-1.91-2.37h-1.65c-.07,0-.13.06-.13.13h0Z" class="cls-1"></path>
            <path d="M134.51,60.2h-10.41c-.07,0-.13-.06-.13-.13v-8.43c0-.07.06-.13.13-.13h10.32c.07,0,.13.06.13.13v1.72c0,.07-.06.13-.13.13h-6.81c-.07,0-.13.06-.13.13v1.08c0,.07.06.13.13.13h4.88c.07,0,.13.06.13.13v1.69c0,.07-.06.13-.13.13h-4.88c-.07,0-.13.06-.13.13v1.19c0,.07.06.13.13.13h6.91c.07,0,.13.06.13.13v1.72c0,.07-.06.13-.13.13h0Z" class="cls-1"></path>
          </g>
          <g>
            <path d="M177.81,51.64v8.43c0,.07-.06.13-.13.13h-3.25c-.07,0-.13-.06-.13-.13v-8.43c0-.07.06-.13.13-.13h3.25c.07,0,.13.06.13.13h0Z" class="cls-1"></path>
            <path d="M185.04,55.96v4.11c0,.07-.06.13-.13.13h-2.72c-.07,0-.13-.06-.13-.13v-8.43c0-.07.06-.13.13-.13h3.32s.07.02.09.04l4.12,4.58c.08.09.22.03.22-.09v-4.41c0-.07.06-.13.13-.13h2.72c.07,0,.13.06.13.13v8.43c0,.07-.06.13-.13.13h-3.51s-.07-.01-.09-.04l-3.94-4.28c-.08-.09-.22-.03-.22.09h0Z" class="cls-1"></path>
            <path d="M203.07,51.52h3.25c.07,0,.13.06.13.13v4.6c0,1.39.66,2.09,1.96,2.09s1.98-.71,1.98-2.09v-4.6c0-.07.06-.13.13-.13h3.1c.07,0,.13.06.13.13v4.21c0,3.4-2.46,4.48-5.33,4.48s-5.47-1.08-5.47-4.48v-4.21c0-.07.06-.13.13-.13Z" class="cls-1"></path>
            <path d="M221.3,51.39h1.91c1.42,0,2.91.27,3.72.66.07.03.09.11.05.18l-.86,1.67c-.03.06-.1.08-.16.06-.89-.36-1.94-.54-3.11-.54h-1.18c-.62,0-.92.17-.92.55s.3.53.84.53h2.68c2.22,0,3.35,1.2,3.35,2.85s-1.27,3-3.98,3h-2.03c-1.43,0-2.92-.25-4.34-.76-.08-.03-.11-.12-.07-.19l1.09-1.85c.04-.06.11-.08.17-.04.88.53,1.94.82,3.45.82h1.25c.82,0,1.1-.22,1.1-.62,0-.32-.27-.6-.91-.6h-1.46c-2.91,0-4.41-.95-4.41-2.78,0-1.7,1.46-2.91,3.78-2.91h0Z" class="cls-1"></path>
            <path d="M230.4,60.02l3.75-8.43s.07-.08.12-.08h3.34c.05,0,.1.03.12.08l3.58,8.43c.04.08-.03.18-.12.18h-3.21c-.05,0-.1-.03-.12-.08l-.35-.83s-.07-.08-.12-.08h-3.39c-.05,0-.1.03-.12.08l-.36.83s-.07.08-.12.08h-2.89c-.09,0-.15-.09-.12-.18h0ZM234.94,57.29h1.55c.09,0,.15-.09.12-.18l-.85-2.03h-.05l-.88,2.03c-.04.08.03.18.12.18h0Z" class="cls-1"></path>
          </g>
        </g>
      </g>
      <g>
        <path d="M276.74,19.53c0-1.6.96-4.04,2.17-5.24,5.54-5.54,11.98-2.91,11.98-5.96,0-.94-.75-1.76-3.56-1.76-3.85,0-5.56.72-7.57,2.19l-3.02-4.36c1.28-1.12,5.75-1.9,8.29-1.9h6.04c4.47,0,7.49,2.11,7.49,5.4,0,3.77-2.86,5.4-6.85,5.88-6.71.83-7.46,1.42-7.65,2.51h14.76v4.06h-22.09v-.83Z" class="cls-1"></path>
        <path d="M291.07,34.32c0-1.47-1.15-2.25-3.42-2.25-1.36,0-2.49.24-3.37.67l-6.79-1.15,2.17-8.93h19.07v4.06h-13.1l-.78,2.78.08.05c1.12-.45,2.97-.86,5.46-.86,5.03,0,8.37,2.03,8.37,5.8s-2.78,6.12-7.89,6.12h-5.67c-3.96,0-7.09-.78-8.37-1.9l3.02-4.36c2.01,1.47,3.72,2.19,7.57,2.19,2.54,0,3.66-.72,3.66-2.25Z" class="cls-1"></path>
        <path d="M299.4,52.16c0,6.71-5.24,9.23-11.47,9.23s-11.77-2.51-11.77-9.23,5.54-9.23,11.77-9.23,11.47,2.51,11.47,9.23ZM292.02,52.96v-1.6c0-2.83-1.39-4.31-4.09-4.31s-4.06,1.44-4.06,4.31v1.6c0,2.86,1.39,4.31,4.06,4.31s4.09-1.47,4.09-4.31Z" class="cls-1"></path>
      </g>
      <g>
        <g>
          <path d="M21.34,19.26c0-1.6.96-4.04,2.17-5.24,5.54-5.54,11.98-2.91,11.98-5.96,0-.94-.75-1.76-3.56-1.76-3.85,0-5.56.72-7.57,2.19l-3.02-4.36c1.28-1.12,5.75-1.9,8.29-1.9h6.04c4.47,0,7.49,2.11,7.49,5.4,0,3.77-2.86,5.4-6.85,5.88-6.71.83-7.46,1.42-7.65,2.51h14.76v4.06h-22.09v-.83Z" class="cls-1"></path>
          <path d="M35.67,34.05c0-1.47-1.15-2.25-3.42-2.25-1.36,0-2.49.24-3.37.67l-6.79-1.15,2.17-8.93h19.07v4.06h-13.1l-.78,2.78.08.05c1.12-.45,2.97-.86,5.46-.86,5.03,0,8.37,2.03,8.37,5.8s-2.78,6.12-7.89,6.12h-5.67c-3.96,0-7.09-.78-8.37-1.9l3.02-4.36c2.01,1.47,3.72,2.19,7.57,2.19,2.54,0,3.66-.72,3.66-2.25Z" class="cls-1"></path>
          <path d="M44,51.89c0,6.71-5.24,9.23-11.47,9.23s-11.77-2.51-11.77-9.23,5.54-9.23,11.77-9.23,11.47,2.51,11.47,9.23ZM36.62,52.69v-1.6c0-2.83-1.39-4.31-4.09-4.31s-4.06,1.44-4.06,4.31v1.6c0,2.86,1.39,4.31,4.06,4.31s4.09-1.47,4.09-4.31Z" class="cls-1"></path>
        </g>
        <polygon points="9.55 0 12.53 5.94 19.09 6.94 14.37 11.6 15.45 18.16 9.55 15.11 3.65 18.16 4.73 11.6 0 6.94 6.57 5.94 9.55 0" class="cls-2"></polygon>
        <polygon points="9.55 21.55 12.53 27.49 19.09 28.49 14.37 33.15 15.45 39.71 9.55 36.66 3.65 39.71 4.73 33.15 0 28.49 6.57 27.49 9.55 21.55" class="cls-2"></polygon>
        <polygon points="9.55 43.1 12.53 49.04 19.09 50.04 14.37 54.7 15.45 61.26 9.55 58.21 3.65 61.26 4.73 54.7 0 50.04 6.57 49.04 9.55 43.1" class="cls-2"></polygon>
      </g>
      <polygon points="311.11 .04 314.09 5.98 320.66 6.98 315.93 11.65 317.01 18.2 311.11 15.15 305.21 18.2 306.29 11.65 301.57 6.98 308.13 5.98 311.11 .04" class="cls-2"></polygon>
      <polygon points="311.11 21.59 314.09 27.53 320.66 28.53 315.93 33.19 317.01 39.75 311.11 36.7 305.21 39.75 306.29 33.19 301.57 28.53 308.13 27.53 311.11 21.59" class="cls-2"></polygon>
      <polygon points="311.11 43.14 314.09 49.08 320.66 50.08 315.93 54.74 317.01 61.3 311.11 58.25 305.21 61.3 306.29 54.74 301.57 50.08 308.13 49.08 311.11 43.14" class="cls-2"></polygon>
    </g>
  </g>
</svg>