<svg class="main-logo" viewBox="0 0 124 30" fill="none" xmlns="http://www.w3.org/2000/svg">
      <g id="Group 634360">
      <circle id="Ellipse 924" cx="14.6766" cy="15" r="14.6766" fill="white"></circle>
      <g id="Vector">
      <path d="M20.8351 10.0307C20.8351 10.0303 20.8351 10.0299 20.8351 10.0295L20.834 10.0307H20.8351V10.0295C20.8351 10.0299 20.8351 10.0303 20.8351 10.0307C20.8345 10.1584 20.7296 10.263 20.5982 10.2653C20.2527 10.2711 19.5593 10.3439 18.7238 10.7703C17.641 11.3227 15.4545 12.6043 14.7473 12.1282C14.6294 12.0496 14.5716 11.9097 14.5716 11.7688V10.5033C14.5716 10.3728 14.4861 10.2537 14.3567 10.2191C14.2087 10.1774 14.0157 10.1613 13.7811 10.2225C13.2218 10.3704 10.4633 12.053 8.69982 12.2171C8.55768 12.2299 8.43634 12.1201 8.43634 11.9814V9.68862C8.43634 9.5615 8.54035 9.45633 8.67093 9.45402C9.01647 9.44824 9.71101 9.37659 10.5465 8.95017C11.6294 8.39777 13.8158 7.11617 14.5242 7.5923C14.6421 7.67088 14.6999 7.81071 14.6999 7.9517V9.21712C14.6999 9.3477 14.7854 9.46442 14.9148 9.5014C15.0627 9.54301 15.2557 9.55919 15.4903 9.49794C16.0497 9.34886 18.8082 7.66741 20.5717 7.50331C20.7138 7.4906 20.8351 7.60038 20.8351 7.73906V10.0295V10.0307Z" fill="black"></path>
      <path d="M20.5624 16.7079C20.7126 16.7079 20.8351 16.5889 20.8351 16.4421V16.4398H20.8363V14.0384C20.8363 13.8917 20.7138 13.7726 20.5636 13.7726H13.6298C10.1987 13.7726 8.46292 15.4079 8.46292 18.6968V22.604C8.46292 22.7508 8.58542 22.8698 8.73565 22.8698H11.1555C11.3058 22.8698 11.4283 22.7508 11.4283 22.604V18.6575C11.4283 17.3782 12.1563 16.7079 13.6286 16.7079H20.5624Z" fill="black"></path>
      </g>
      <path id="Vector_2" d="M77.4033 17.477V16.0024H83.6691V13.549H77.4033V10.4727H84.7994V7.8598H74.706V17.4781C74.706 20.5001 76.2176 22.029 79.2616 22.029H84.8375V19.4161H79.2257C78.0227 19.4161 77.4033 18.7759 77.4033 17.4781V17.477ZM66.2641 22.0267H71.8401V19.4138H66.2283C65.0253 19.4138 64.4059 18.7736 64.4059 17.4758V16.0012H70.6717V13.5478H64.4059V10.4715H71.8031V7.85864H61.7098V17.477C61.7098 20.499 63.2213 22.0279 66.2641 22.0279V22.0267ZM59.7625 22.0267L54.9123 16.3953L55.7097 16.3918C57.9805 16.3918 59.1004 15.0051 59.1004 12.9434V11.5913C59.1004 9.10211 57.9701 7.85864 55.7109 7.85864H48.8603V22.0267H51.5575V16.4115L56.3927 22.0267H59.7625ZM51.5587 14.0806V10.4715H55.4566C56.1662 10.4715 56.5314 10.9165 56.5314 11.8225V12.7112C56.5314 13.6172 56.1674 14.0806 55.4566 14.0806H51.5587ZM39.2951 10.4727H46.3456V7.8598H36.5805V22.0279H39.2951V16.3572H45.1796V13.9038H39.2951V10.4727Z" fill="white"></path>
      <path id="Vector_3" d="M124 7.85864H120.784L118.068 13.0498L115.353 7.85864H112.116L116.608 15.8938L116.631 22.0267H119.551L119.528 15.8938L123.999 7.85864H124ZM113.52 19.4138H109.002C107.819 19.4138 107.198 18.7736 107.198 17.4758V7.85864H104.484V17.477C104.484 20.499 105.995 22.0279 109.039 22.0279H113.521V19.415H113.52V19.4138ZM94.9164 10.4727H101.967V7.8598H92.2018V22.0279H94.9164V16.3572H100.801V13.9038H94.9164V10.4727Z" fill="white"></path>
      </g>
      </svg>