<svg width="214" height="20" viewBox="0 0 214 20" fill="none" xmlns="http://www.w3.org/2000/svg">
<path d="M0 0.805556C0 0.527778 0.22436 0.277778 0.532856 0.277778H3.87022C4.15067 0.277778 4.40307 0.527778 4.40307 0.805556V15.6389H11.0778C11.3863 15.6389 11.6106 15.8889 11.6106 16.1667V19.1944C11.6106 19.4722 11.3863 19.7222 11.0778 19.7222H0.532856C0.22436 19.7222 0 19.4722 0 19.1944V0.805556ZM19.94 0.805556C19.94 0.527778 20.1644 0.277778 20.4729 0.277778H32.0835C32.392 0.277778 32.6164 0.527778 32.6164 0.805556V3.83333C32.6164 4.11111 32.392 4.36111 32.0835 4.36111H24.3151V7.80556H30.7093C30.9898 7.80556 31.2422 8.05556 31.2422 8.33333V11.3611C31.2422 11.6667 30.9898 11.8889 30.7093 11.8889H24.3151V15.6389H32.0835C32.392 15.6389 32.6164 15.8889 32.6164 16.1667V19.1944C32.6164 19.4722 32.392 19.7222 32.0835 19.7222H20.4729C20.1644 19.7222 19.94 19.4722 19.94 19.1944V0.805556ZM50.6493 0.0277778C53.0051 0.0277778 55.5853 1 57.4923 2.63889C57.7447 2.83333 57.7728 3.16667 57.5484 3.38889L55.3329 5.72222C55.1085 5.91667 54.8 5.91667 54.5757 5.75C53.5099 4.77778 52.276 4.41667 50.9018 4.41667C47.8448 4.41667 45.3769 6.97222 45.3769 10.0278C45.3769 13.0556 47.8729 15.5556 50.9298 15.5556C51.7431 15.5556 52.5845 15.4444 53.4258 15.1111V13.5H51.659C51.3505 13.5 51.1261 13.2778 51.1261 13V10.25C51.1261 9.94444 51.3505 9.72222 51.659 9.72222H57.296C57.5765 9.72222 57.8008 9.97222 57.8008 10.25L57.8289 17.7222C57.8289 17.8611 57.7167 18.0833 57.6045 18.1667C57.6045 18.1667 54.7159 19.9722 50.6493 19.9722C45.0684 19.9722 40.5812 15.5833 40.5812 10.0278C40.5812 4.47222 45.0684 0.0277778 50.6493 0.0277778ZM64.756 19L73.5341 0.305556C73.6182 0.138889 73.8146 0 74.0109 0H74.2913C74.4876 0 74.684 0.138889 74.7681 0.305556L83.5462 19C83.7145 19.3611 83.4901 19.7222 83.0694 19.7222H79.9564C79.4516 19.7222 79.2272 19.5556 78.9748 19.0278L77.9652 16.8333H70.337L69.3273 19.0556C69.1871 19.3889 68.8786 19.7222 68.3177 19.7222H65.2328C64.8121 19.7222 64.5877 19.3611 64.756 19ZM76.2825 13.0556L74.1511 8.47222H74.123L72.0197 13.0556H76.2825ZM100.149 0C102.953 0 105.029 0.861111 106.936 2.58333C107.188 2.80556 107.188 3.13889 106.964 3.36111L104.776 5.61111C104.58 5.80556 104.271 5.80556 104.075 5.61111C103.037 4.69444 101.663 4.19444 100.289 4.19444C97.12 4.19444 94.7923 6.80556 94.7923 9.91667C94.7923 13 97.148 15.5556 100.317 15.5556C101.635 15.5556 103.066 15.0833 104.075 14.2222C104.271 14.0556 104.636 14.0556 104.804 14.25L106.992 16.5556C107.188 16.75 107.16 17.1111 106.964 17.3056C105.057 19.1389 102.645 20 100.149 20C94.5398 20 90.0246 15.5833 90.0246 10.0278C90.0246 4.47222 94.5398 0 100.149 0ZM119.556 10.3611L113.358 1.08333C113.134 0.722222 113.358 0.277778 113.807 0.277778H117.453C117.677 0.277778 117.817 0.416667 117.901 0.527778L121.8 6.22222L125.698 0.527778C125.782 0.416667 125.894 0.277778 126.147 0.277778H129.792C130.241 0.277778 130.466 0.722222 130.241 1.08333L123.959 10.3333V19.1944C123.959 19.4722 123.707 19.7222 123.426 19.7222H120.089C119.78 19.7222 119.556 19.4722 119.556 19.1944V10.3611ZM138.094 0.805556C138.094 0.527778 138.318 0.277778 138.627 0.277778H145.161C148.47 0.277778 151.191 2.52778 151.191 5.44444C151.191 7.58333 149.256 9.13889 147.938 9.83333C149.424 10.4444 151.696 11.8056 151.696 14.3611C151.696 17.4722 148.919 19.7222 145.582 19.7222H138.627C138.318 19.7222 138.094 19.4722 138.094 19.1944V0.805556ZM144.656 8.16667C145.722 8.16667 146.619 7.27778 146.619 6.16667C146.619 5.05556 145.722 4.27778 144.656 4.27778H142.469V8.16667H144.656ZM145.021 15.75C146.115 15.75 147.04 14.8611 147.04 13.7222C147.04 12.6111 145.834 11.7778 144.74 11.7778H142.469V15.75H145.021ZM169.504 0C175.113 0 179.6 4.47222 179.6 10.0278C179.6 15.5833 175.113 20 169.504 20C163.895 20 159.436 15.5833 159.436 10.0278C159.436 4.47222 163.895 0 169.504 0ZM169.504 15.5556C172.589 15.5556 175.113 13.0556 175.113 10.0278C175.113 6.97222 172.589 4.44444 169.504 4.44444C166.447 4.44444 163.923 6.97222 163.923 10.0278C163.923 13.0556 166.447 15.5556 169.504 15.5556ZM192.754 9.75L187.088 1.05556C186.864 0.694444 187.088 0.277778 187.565 0.277778H191.66C191.856 0.277778 192.024 0.416667 192.109 0.527778L195.334 5.69444H195.362L198.643 0.527778C198.699 0.416667 198.895 0.277778 199.092 0.277778H203.186C203.663 0.277778 203.916 0.694444 203.663 1.05556L197.97 9.75L203.859 18.9444C204.112 19.3333 203.859 19.7222 203.411 19.7222H199.512C199.344 19.7222 199.12 19.6111 199.036 19.4722L195.362 13.8611H195.306L191.716 19.4722C191.632 19.5833 191.464 19.7222 191.239 19.7222H187.341C186.864 19.7222 186.612 19.3056 186.864 18.9444L192.754 9.75ZM210.716 0.277778C212.385 0.277778 213.745 1.62963 213.745 3.27778C213.745 4.92593 212.38 6.26852 210.716 6.26852C209.052 6.26852 207.697 4.92593 207.697 3.27778C207.697 1.62963 209.052 0.277778 210.716 0.277778ZM210.716 5.62037C212.03 5.62037 213.082 4.56944 213.082 3.27778C213.082 1.97685 212.03 0.935185 210.716 0.935185C209.412 0.935185 208.351 1.97685 208.351 3.27778C208.351 4.56944 209.412 5.62037 210.716 5.62037ZM209.59 1.90278C209.59 1.81944 209.655 1.74537 209.749 1.74537H211.053C211.576 1.74537 212.086 2.12963 212.086 2.77778C212.086 3.3287 211.749 3.5787 211.488 3.7037L211.876 4.56944C211.927 4.68518 211.852 4.7963 211.731 4.7963H211.277C211.212 4.7963 211.151 4.73611 211.128 4.68056L210.758 3.74537H210.319V4.63889C210.319 4.72222 210.254 4.7963 210.16 4.7963H209.749C209.655 4.7963 209.59 4.72222 209.59 4.63889V1.90278ZM210.964 3.12963C211.165 3.12963 211.31 2.98148 211.31 2.78704C211.31 2.58796 211.165 2.44444 210.964 2.44444H210.3V3.12963H210.964Z" fill="#252525"/>
</svg>
