<svg width="215" height="32" viewBox="0 0 215 32" fill="none" xmlns="http://www.w3.org/2000/svg">
<path d="M9.10534 31.6498H15.4966L21.5814 11.2503L27.6662 31.6498H34.145L43.2066 1.00684H36.5527L30.643 21.9754L24.3393 1.00684H18.7798L12.5198 21.9754L6.6539 1.00684H0L9.10534 31.6498Z" fill="#4B07AD"/>
<path d="M45.0267 0V6.43502H51.5055V0H45.0267ZM45.2018 31.6498H51.3304V9.58687H45.2018V31.6498Z" fill="#4B07AD"/>
<path d="M54.0964 31.6498H73.2702V26.528H61.1881L72.6135 14.6648V9.58687H54.8406V14.6648H65.6532L54.0964 26.528V31.6498Z" fill="#4B07AD"/>
<path d="M84.8331 9.23666C78.7921 9.23666 75.2025 12.7825 74.9398 17.2038H80.368C80.4555 15.3653 81.8126 13.7018 84.4829 13.7018C86.9781 13.7018 88.4227 14.9713 88.4227 16.8099C88.4227 17.7291 87.8536 18.4296 86.7592 18.4296H83.0383C78.223 18.4296 74.9836 21.0561 74.9836 25.3899C74.9836 29.1546 77.9165 32 82.2066 32C85.2271 32 87.6785 30.643 88.4227 28.5855V31.6498H94.4638V17.4665C94.4638 12.4761 90.3926 9.23666 84.8331 9.23666ZM83.7387 27.5787C82.0315 27.5787 80.8057 26.5718 80.8057 25.1272C80.8057 23.42 82.119 22.2818 83.9576 22.2818H88.4227V22.5882C88.4227 25.3899 86.7155 27.5787 83.7387 27.5787Z" fill="#4B07AD"/>
<path d="M111.905 14.6648V9.58687H109.409C106.739 9.58687 105.076 10.5062 103.894 13.264V9.58687H97.765V31.6498H103.894V20.9248C103.894 17.1601 105.251 14.6648 108.271 14.6648H111.905Z" fill="#4B07AD"/>
<path d="M122.415 32C124.954 32 127.23 30.9494 128.456 29.2421V31.6498H134.541V0H128.456V11.907C127.23 10.2873 125.085 9.23666 122.327 9.23666C115.936 9.23666 111.996 13.7456 111.996 20.6183C111.996 27.4911 115.936 32 122.415 32ZM123.422 26.7469C120.182 26.7469 118.037 24.2955 118.037 20.6183C118.037 16.8974 120.182 14.446 123.422 14.446C126.661 14.446 128.806 16.8974 128.806 20.6183C128.806 24.2955 126.661 26.7469 123.422 26.7469Z" fill="#4B07AD"/>
<path d="M138.685 31.6498H145.295V20.3557H151.292C157.815 20.3557 161.623 16.2845 161.623 10.6813C161.623 5.0342 157.815 1.00684 151.292 1.00684H138.685V31.6498ZM145.295 14.8837V6.4788H150.898C153.962 6.4788 155.276 8.4487 155.276 10.6813C155.276 12.9138 153.962 14.8837 150.898 14.8837H145.295Z" fill="#4B07AD"/>
<path d="M163.569 0V6.43502H170.048V0H163.569ZM163.744 31.6498H169.872V9.58687H163.744V31.6498Z" fill="#4B07AD"/>
<path d="M173.47 31.6498H179.599V19.5677C179.599 16.7223 181.481 14.6648 184.152 14.6648C186.69 14.6648 188.398 16.591 188.398 19.2613V31.6498H194.526V17.9042C194.526 12.8263 191.287 9.23666 186.297 9.23666C183.276 9.23666 180.825 10.5062 179.599 12.6512V9.58687H173.47V31.6498Z" fill="#4B07AD"/>
<path d="M206.171 32C211.337 32 214.751 29.2421 214.751 25.0397C214.751 15.0588 202.669 20.1806 202.669 15.6717C202.669 14.2709 203.851 13.5267 205.558 13.5267C207.222 13.5267 208.929 14.5335 209.191 16.4159H214.488C214.269 12.0821 210.68 9.23666 205.383 9.23666C200.874 9.23666 197.503 11.9945 197.503 15.8906C197.503 25.171 209.367 20.7497 209.367 25.2586C209.367 26.4843 208.053 27.4036 206.171 27.4036C203.895 27.4036 202.362 26.1778 202.144 24.2079H196.891C197.109 28.9795 200.787 32 206.171 32Z" fill="#4B07AD"/>
</svg>